<svg height="512pt" viewBox="-34 0 512 512.00102" width="512pt" xmlns="http://www.w3.org/2000/svg"><path d="m43.550781 157.394531c-19.835937 0-35.914062 16.078125-35.914062 35.914063 0 19.835937 16.078125 35.914062 35.914062 35.914062-19.835937 0-35.914062 16.078125-35.914062 35.914063 0 19.835937 16.078125 35.914062 35.914062 35.914062h51.601563v-146.261719zm0 0" fill="#dd9f68"/><path d="m160.898438 449.6875c2.613281 3.046875 5.335937 5.992188 8.175781 8.835938 28.332031 28.328124 67.453125 45.839843 110.679687 45.839843 86.441406 0 156.507813-70.074219 156.507813-156.519531" fill="#dd9f68"/><path d="m332.867188 36.625v351.402344h-63.535157c2.085938 4.296875 4.539063 8.40625 7.335938 12.285156 3.714843 5.152344 5.84375 11.28125 5.84375 17.640625v2.210937c0 16.304688-13.222657 29.527344-29.53125 29.527344h-180.445313c-16.011718 0-28.988281-12.976562-28.988281-28.980468v-384.085938c0-16.011719 12.976563-28.992188 28.988281-28.992188h231.363282c15.992187 0 28.96875 12.980469 28.96875 28.992188zm0 0" fill="#405968"/><path d="m97.742188 449.691406h-25.207032c-16.011718 0-28.988281-12.976562-28.988281-28.980468v-384.085938c0-16.011719 12.976563-28.992188 28.988281-28.992188h25.207032c-16.011719 0-28.992188 12.980469-28.992188 28.992188v384.085938c0 16.003906 12.980469 28.980468 28.992188 28.980468zm0 0" fill="#273c47"/><path d="m43.542969 52.105469h289.320312v315.816406h-289.320312zm0 0" fill="#6adbbd"/><path d="m299.191406 52.105469-255.648437 255.660156v-129.449219l126.210937-126.210937zm0 0" fill="#a6f7e0"/><path d="m332.863281 76.027344v64.730468l-227.167969 227.164063h-62.152343v-2.5625zm0 0" fill="#a6f7e0"/><path d="m43.542969 52.105469h25.207031v315.816406h-25.207031zm0 0" fill="#4fbf9f"/><path d="m307.660156 52.105469h25.203125v315.816406h-25.203125zm0 0" fill="#a6f7e0"/><path d="m238.605469 166.007812c-14.695313 14.699219-14.695313 38.527344 0 53.222657l56.789062 56.792969c-4.988281 3.671874-9.683593 7.929687-13.980469 12.785156-28.769531 32.476562-28.261718 86.722656 1.097657 118.671875 34.082031 37.097656 91.625 38.3125 127.246093 3.640625 17.761719-17.285156 26.535157-40.246094 26.507813-63.277344-.027344-23.128906-8.929687-46.328125-26.53125-63.925781l-117.90625-117.910157c-14.695313-14.695312-38.523437-14.695312-53.222656 0zm0 0" fill="#ffc994"/><path d="m295.394531 276.027344-56.789062-56.800782c-7.347657-7.347656-11.023438-16.976562-11.023438-26.609374 0-9.628907 3.675781-19.257813 11.023438-26.605469-1.140625 1.140625-1.679688 2.777343-1.679688 4.804687 0 7.378906 7.1875 19.835938 18.71875 31.371094l39.753907 39.757812c9.40625 9.410157 9.40625 24.667969-.003907 34.082032zm0 0" fill="#dd9f68"/><path d="m410.738281 410.148438c-.316406.335937-.652343.652343-.980469.976562-35.625 34.671875-93.167968 33.460938-127.246093-3.644531-29.359375-31.949219-29.867188-86.195313-1.101563-118.667969 1.128906-1.269531 2.28125-2.511719 3.472656-3.703125-.621093.640625-1.222656 1.3125-1.792968 2.023437-15.542969 19.25-3.429688 61.890626 26.488281 93.28125 34.730469 36.453126 80.109375 49.828126 100.546875 30.335938.203125-.195312.40625-.398438.613281-.601562zm0 0" fill="#dd9f68"/><path d="m443.898438 347.835938c-.007813-8.609376-1.152344-17.1875-3.398438-25.503907-1.097656-4.070312-5.285156-6.480469-9.359375-5.382812-4.070313 1.097656-6.480469 5.289062-5.378906 9.359375 1.894531 7.027344 2.859375 14.273437 2.871093 21.546875.027344 22.054687-8.566406 42.582031-24.195312 57.789062-6.726562 6.546875-14.40625 11.8125-22.824219 15.648438-3.835937 1.75-5.53125 6.277343-3.78125 10.113281 1.28125 2.8125 4.054688 4.46875 6.953125 4.46875 1.058594 0 2.136719-.21875 3.164063-.6875 7.402343-3.378906 14.320312-7.683594 20.652343-12.835938-25.789062 44.433594-73.882812 74.378907-128.847656 74.378907-37.742187 0-73.328125-13.953125-100.894531-39.40625h62.867187.046876 11.207031c20.492187 0 37.164062-16.671875 37.164062-37.164063v-2.210937c0-7.863281-2.523437-15.507813-7.296875-22.113281-21.675781-29.992188-19.796875-74.78125 4.277344-101.964844 3.855469-4.347656 8.164062-8.285156 12.800781-11.703125 1.792969-1.320313 2.917969-3.351563 3.085938-5.574219.164062-2.214844-.640625-4.398438-2.214844-5.96875l-56.789063-56.792969c-5.667968-5.664062-8.789062-13.203125-8.789062-21.21875 0-8.007812 3.121094-15.542969 8.785156-21.207031 11.703125-11.695312 30.730469-11.695312 42.421875-.003906l41.027344 41.027344c.011719.011718.023437.023437.035156.035156l76.855469 76.851562c3.570312 3.574219 6.824219 7.484375 9.671875 11.625 2.390625 3.472656 7.140625 4.351563 10.617187 1.960938 3.472657-2.390625 4.351563-7.144532 1.960938-10.617188-3.375-4.90625-7.226562-9.535156-11.457031-13.765625l-74.636719-74.636719v-167.261718c0-20.191406-16.421875-36.621094-36.609375-36.621094h-172.484375c-4.21875 0-7.636719 3.417969-7.636719 7.632812 0 4.21875 3.417969 7.636719 7.636719 7.636719h172.484375c11.769531 0 21.339844 9.578125 21.339844 21.351563v7.855468h-274.050781v-7.855468c0-11.773438 9.578124-21.351563 21.351562-21.351563h28.335938c4.214843 0 7.632812-3.417969 7.632812-7.636719 0-4.214843-3.417969-7.632812-7.632812-7.632812h-28.335938c-20.191406 0-36.617188 16.429688-36.617188 36.621094v113.824218c-20.382812 3.621094-35.914062 21.457032-35.914062 42.863282 0 14.890625 7.511719 28.058594 18.941406 35.914062-11.429687 7.859375-18.941406 21.027344-18.941406 35.914063 0 21.40625 15.53125 39.242187 35.914062 42.867187v112.710938c0 20.1875 16.425782 36.609375 36.617188 36.609375h84.914062c2.042969 2.285156 4.128907 4.496093 6.234376 6.597656 31.003906 31.003906 72.226562 48.078125 116.074218 48.078125 89.566406 0 162.59375-72.113281 164.109375-161.332031.023438-.941407.039063-1.886719.035157-2.832031zm-118.667969-288.089844v128.871094l-28.007813-28.011719c-17.644531-17.640625-46.359375-17.640625-64.015625 0-8.550781 8.554687-13.257812 19.917969-13.257812 32.007812 0 12.09375 4.707031 23.464844 13.257812 32.015625l50.800781 50.800782c-2.929687 2.597656-5.707031 5.375-8.3125 8.316406-18.089843 20.425781-25.648437 49.175781-22.289062 76.546875h-202.226562v-300.546875zm-309.960938 133.5625c0-12.945313 8.75-23.882813 20.644531-27.222656v54.445312c-11.894531-3.339844-20.644531-14.273438-20.644531-27.222656zm0 71.828125c0-12.945313 8.75-23.882813 20.644531-27.222657v54.445313c-11.894531-3.339844-20.644531-14.277344-20.644531-27.222656zm35.910157 155.578125v-45.15625h205.285156c2.953125 10.4375 7.613281 20.375 14.007812 29.222656 2.878906 3.984375 4.402344 8.539062 4.402344 13.167969v2.207031c0 12.074219-9.820312 21.894531-21.894531 21.894531h-23.066407c-.015624 0-.027343.003907-.042968.003907h-157.339844c-11.773438 0-21.351562-9.574219-21.351562-21.339844zm0 0"/><path d="m211.421875 400.289062h-46.429687c-4.214844 0-7.632813 3.417969-7.632813 7.632813 0 4.21875 3.417969 7.636719 7.632813 7.636719h46.429687c4.214844 0 7.632813-3.417969 7.632813-7.636719 0-4.214844-3.417969-7.632813-7.632813-7.632813zm0 0"/></svg>